<svg width="16" height="16" viewBox="0 0 16 16" fill="none" xmlns="http://www.w3.org/2000/svg">
<g id="document-text">
<path id="Vector" d="M9 7.02344H13.375C13.4019 7.02344 13.4278 7.03414 13.4468 7.05318C13.4659 7.07223 13.4766 7.09806 13.4766 7.125V13C13.4766 13.5242 13.2683 14.027 12.8976 14.3976C12.527 14.7683 12.0242 14.9766 11.5 14.9766H4.5C3.97578 14.9766 3.47304 14.7683 3.10236 14.3976C2.73168 14.027 2.52344 13.5242 2.52344 13V3C2.52344 2.47578 2.73168 1.97304 3.10236 1.60236C3.47304 1.23168 3.97578 1.02344 4.5 1.02344H7.375C7.40194 1.02344 7.42777 1.03414 7.44682 1.05318C7.46586 1.07223 7.47656 1.09806 7.47656 1.125V5.5C7.47656 5.90404 7.63707 6.29153 7.92277 6.57723C8.20847 6.86293 8.59596 7.02344 9 7.02344ZM5.5 12.0234H10.5C10.6388 12.0234 10.772 11.9683 10.8701 11.8701C10.9683 11.772 11.0234 11.6388 11.0234 11.5C11.0234 11.3612 10.9683 11.228 10.8701 11.1299C10.772 11.0317 10.6388 10.9766 10.5 10.9766H5.5C5.36118 10.9766 5.22804 11.0317 5.12987 11.1299C5.03171 11.228 4.97656 11.3612 4.97656 11.5C4.97656 11.6388 5.03171 11.772 5.12987 11.8701C5.22804 11.9683 5.36118 12.0234 5.5 12.0234ZM5.5 9.52344H10.5C10.6388 9.52344 10.772 9.46829 10.8701 9.37013C10.9683 9.27196 11.0234 9.13882 11.0234 9C11.0234 8.86118 10.9683 8.72804 10.8701 8.62987C10.772 8.53171 10.6388 8.47656 10.5 8.47656H5.5C5.36118 8.47656 5.22804 8.53171 5.12987 8.62987C5.03171 8.72804 4.97656 8.86118 4.97656 9C4.97656 9.13882 5.03171 9.27196 5.12987 9.37013C5.22804 9.46829 5.36118 9.52344 5.5 9.52344Z" fill="white" stroke="white" stroke-width="0.046875"/>
<path id="Vector_2" d="M8.59004 1.41599L13.084 5.90996L8.59004 1.41599ZM8.59004 1.41599C8.59003 1.41598 8.59002 1.41598 8.59002 1.41597M8.59004 1.41599L8.59002 1.41597M8.59002 1.41597C8.58456 1.41055 8.57762 1.40687 8.57008 1.40537C8.56252 1.40388 8.55469 1.40465 8.54757 1.4076C8.54046 1.41054 8.53437 1.41552 8.53007 1.42192C8.52579 1.4283 8.52348 1.4358 8.52344 1.44349V5.5C8.52344 5.62639 8.57365 5.7476 8.66302 5.83698C8.75239 5.92635 8.87361 5.97656 9 5.97656H13.0565C13.0642 5.97653 13.0717 5.97422 13.0781 5.96992C13.0845 5.96563 13.0895 5.95954 13.0924 5.95242C13.0953 5.9453 13.0961 5.93748 13.0946 5.92992C13.0931 5.92239 13.0895 5.91546 13.0841 5.91001L8.59002 1.41597Z" fill="white" stroke="white" stroke-width="0.046875"/>
</g>
</svg>
