<svg width="32" height="32" viewBox="0 0 32 32" fill="none" xmlns="http://www.w3.org/2000/svg">
<g id="logos:google-icon" clip-path="url(#clip0_64_1198)">
<path id="Vector" d="M31.9848 16.2994C31.9848 14.9883 31.876 14.0316 31.6403 13.0395H16.3188V18.9568H25.3122C25.131 20.4274 24.1518 22.642 21.976 24.1301L21.9455 24.3282L26.7898 27.9951L27.1255 28.0278C30.2078 25.2463 31.9848 21.1537 31.9848 16.2994Z" fill="#4285F4"/>
<path id="Vector_2" d="M16.3188 31.8901C20.7248 31.8901 24.4237 30.4727 27.1255 28.0278L21.976 24.1301C20.598 25.0691 18.7485 25.7246 16.3188 25.7246C12.0035 25.7246 8.34085 22.9431 7.03522 19.0986L6.84385 19.1145L1.8066 22.9236L1.74072 23.1025C4.42422 28.3112 9.93635 31.8901 16.3188 31.8901Z" fill="#34A853"/>
<path id="Vector_3" d="M7.03512 19.0986C6.69062 18.1065 6.49125 17.0434 6.49125 15.945C6.49125 14.8465 6.69062 13.7836 7.017 12.7915L7.00787 12.5802L1.9075 8.70986L1.74062 8.78742C0.634625 10.9489 0 13.3761 0 15.945C0 18.514 0.634625 20.9411 1.74062 23.1025L7.03512 19.0986Z" fill="#FBBC05"/>
<path id="Vector_4" d="M16.3188 6.16537C19.3831 6.16537 21.4501 7.45869 22.6287 8.53948L27.2342 4.14571C24.4057 1.57679 20.7248 0 16.3188 0C9.93635 0 4.42422 3.57875 1.74072 8.78742L7.0171 12.7915C8.34085 8.94693 12.0035 6.16537 16.3188 6.16537Z" fill="#EB4335"/>
</g>
<defs>
<clipPath id="clip0_64_1198">
<rect width="32" height="32" fill="white"/>
</clipPath>
</defs>
</svg>
