<svg width="31" height="29" viewBox="0 0 31 29" fill="none" xmlns="http://www.w3.org/2000/svg">
<path id="Vector" fill-rule="evenodd" clip-rule="evenodd" d="M9.6875 3.84412C6.47734 3.84412 3.875 6.42573 3.875 9.61031C3.875 14.5711 6.78735 18.4104 9.97966 21.1249C11.5584 22.4673 13.1462 23.4809 14.3421 24.1589C14.7951 24.4156 15.1886 24.6225 15.5 24.7791C15.8114 24.6225 16.2049 24.4156 16.6579 24.1589C17.8538 23.4809 19.4416 22.4673 21.0203 21.1249C24.2127 18.4104 27.125 14.5711 27.125 9.61031C27.125 6.42573 24.5227 3.84412 21.3125 3.84412C19.726 3.84412 18.1369 4.7459 16.9526 6.07705L15.5 7.70974L14.0474 6.07705C12.8631 4.7459 11.274 3.84412 9.6875 3.84412ZM15.5 26.9089C14.7368 28.6755 14.7361 28.6752 14.7354 28.6749L14.7292 28.6723L14.7168 28.6669L14.6772 28.6497C14.6445 28.6353 14.5992 28.6152 14.5422 28.5894C14.428 28.5376 14.2667 28.4627 14.065 28.3647C13.6618 28.1688 13.0952 27.8795 12.4196 27.4965C11.0726 26.7329 9.26968 25.5842 7.45784 24.0436C3.8689 20.9918 0 16.1819 0 9.61031C0 4.30268 4.33724 0 9.6875 0C11.947 0 13.9437 0.921962 15.5 2.15864C17.0563 0.921962 19.053 0 21.3125 0C26.6628 0 31 4.30268 31 9.61031C31 16.1819 27.1311 20.9918 23.5422 24.0436C21.7303 25.5842 19.9274 26.7329 18.5804 27.4965C17.9048 27.8795 17.3382 28.1688 16.935 28.3647C16.7333 28.4627 16.572 28.5376 16.4578 28.5894C16.4008 28.6152 16.3555 28.6353 16.3228 28.6497L16.2832 28.6669L16.2708 28.6723L16.2664 28.6742C16.2656 28.6745 16.2632 28.6755 15.5 26.9089ZM15.5 26.9089L14.7354 28.6749L15.5 29L16.2632 28.6755L15.5 26.9089Z" fill="black"/>
</svg>
