<svg width="24" height="24" viewBox="0 0 24 24" fill="none" xmlns="http://www.w3.org/2000/svg">
<g id="calendar">
<path id="Vector" d="M19.5 3.75H4.5C3.25736 3.75 2.25 4.75736 2.25 6V19.5C2.25 20.7426 3.25736 21.75 4.5 21.75H19.5C20.7426 21.75 21.75 20.7426 21.75 19.5V6C21.75 4.75736 20.7426 3.75 19.5 3.75Z" stroke="#314E14" stroke-width="1.5" stroke-linejoin="round"/>
<path id="Vector_2" d="M14.9766 10.875C14.9766 11.4834 14.4834 11.9766 13.875 11.9766C13.2666 11.9766 12.7734 11.4834 12.7734 10.875C12.7734 10.2666 13.2666 9.77344 13.875 9.77344C14.4834 9.77344 14.9766 10.2666 14.9766 10.875Z" fill="#314E14" stroke="#314E14" stroke-width="0.046875"/>
<path id="Vector_3" d="M18.7266 10.875C18.7266 11.4834 18.2334 11.9766 17.625 11.9766C17.0166 11.9766 16.5234 11.4834 16.5234 10.875C16.5234 10.2666 17.0166 9.77344 17.625 9.77344C18.2334 9.77344 18.7266 10.2666 18.7266 10.875Z" fill="#314E14" stroke="#314E14" stroke-width="0.046875"/>
<path id="Vector_4" d="M14.9766 14.625C14.9766 15.2334 14.4834 15.7266 13.875 15.7266C13.2666 15.7266 12.7734 15.2334 12.7734 14.625C12.7734 14.0166 13.2666 13.5234 13.875 13.5234C14.4834 13.5234 14.9766 14.0166 14.9766 14.625Z" fill="#314E14" stroke="#314E14" stroke-width="0.046875"/>
<path id="Vector_5" d="M18.7266 14.625C18.7266 15.2334 18.2334 15.7266 17.625 15.7266C17.0166 15.7266 16.5234 15.2334 16.5234 14.625C16.5234 14.0166 17.0166 13.5234 17.625 13.5234C18.2334 13.5234 18.7266 14.0166 18.7266 14.625Z" fill="#314E14" stroke="#314E14" stroke-width="0.046875"/>
<path id="Vector_6" d="M7.47656 14.625C7.47656 15.2334 6.98338 15.7266 6.375 15.7266C5.76662 15.7266 5.27344 15.2334 5.27344 14.625C5.27344 14.0166 5.76662 13.5234 6.375 13.5234C6.98338 13.5234 7.47656 14.0166 7.47656 14.625Z" fill="#314E14" stroke="#314E14" stroke-width="0.046875"/>
<path id="Vector_7" d="M11.2266 14.625C11.2266 15.2334 10.7334 15.7266 10.125 15.7266C9.51662 15.7266 9.02344 15.2334 9.02344 14.625C9.02344 14.0166 9.51662 13.5234 10.125 13.5234C10.7334 13.5234 11.2266 14.0166 11.2266 14.625Z" fill="#314E14" stroke="#314E14" stroke-width="0.046875"/>
<path id="Vector_8" d="M7.47656 18.375C7.47656 18.9834 6.98338 19.4766 6.375 19.4766C5.76662 19.4766 5.27344 18.9834 5.27344 18.375C5.27344 17.7666 5.76662 17.2734 6.375 17.2734C6.98338 17.2734 7.47656 17.7666 7.47656 18.375Z" fill="#314E14" stroke="#314E14" stroke-width="0.046875"/>
<path id="Vector_9" d="M11.2266 18.375C11.2266 18.9834 10.7334 19.4766 10.125 19.4766C9.51662 19.4766 9.02344 18.9834 9.02344 18.375C9.02344 17.7666 9.51662 17.2734 10.125 17.2734C10.7334 17.2734 11.2266 17.7666 11.2266 18.375Z" fill="#314E14" stroke="#314E14" stroke-width="0.046875"/>
<path id="Vector_10" d="M14.9766 18.375C14.9766 18.9834 14.4834 19.4766 13.875 19.4766C13.2666 19.4766 12.7734 18.9834 12.7734 18.375C12.7734 17.7666 13.2666 17.2734 13.875 17.2734C14.4834 17.2734 14.9766 17.7666 14.9766 18.375Z" fill="#314E14" stroke="#314E14" stroke-width="0.046875"/>
<path id="Vector_11" d="M6 2.25V3.75M18 2.25V3.75" stroke="#314E14" stroke-width="1.5" stroke-linecap="round" stroke-linejoin="round"/>
<path id="Vector_12" d="M21.75 7.5H2.25" stroke="#314E14" stroke-width="1.5" stroke-linejoin="round"/>
</g>
</svg>
