<svg width="24" height="24" viewBox="0 0 24 24" fill="none" xmlns="http://www.w3.org/2000/svg">
<g id="fluent:print-16-regular">
<path id="Vector" d="M6 5.25C6 4.65326 6.23705 4.08097 6.65901 3.65901C7.08097 3.23705 7.65326 3 8.25 3H15.75C16.3467 3 16.919 3.23705 17.341 3.65901C17.7629 4.08097 18 4.65326 18 5.25V6H19.5C20.2956 6 21.0587 6.31607 21.6213 6.87868C22.1839 7.44129 22.5 8.20435 22.5 9V15.75C22.5 16.3467 22.2629 16.919 21.841 17.341C21.419 17.7629 20.8467 18 20.25 18H18.15V18.75C18.15 19.3467 17.9129 19.919 17.491 20.341C17.069 20.7629 16.4967 21 15.9 21H8.25C7.65326 21 7.08097 20.7629 6.65901 20.341C6.23705 19.919 6 19.3467 6 18.75V18H3.75C3.15326 18 2.58097 17.7629 2.15901 17.341C1.73705 16.919 1.5 16.3467 1.5 15.75V9C1.5 8.20435 1.81607 7.44129 2.37868 6.87868C2.94129 6.31607 3.70435 6 4.5 6H6V5.25ZM16.5 6V5.25C16.5 5.05109 16.421 4.86032 16.2803 4.71967C16.1397 4.57902 15.9489 4.5 15.75 4.5H8.25C8.05109 4.5 7.86032 4.57902 7.71967 4.71967C7.57902 4.86032 7.5 5.05109 7.5 5.25V6H16.5ZM6 7.5H4.5C4.10218 7.5 3.72064 7.65804 3.43934 7.93934C3.15804 8.22064 3 8.60218 3 9V15.75C3 15.9489 3.07902 16.1397 3.21967 16.2803C3.36032 16.421 3.55109 16.5 3.75 16.5H6V15.75C6 15.1533 6.23705 14.581 6.65901 14.159C7.08097 13.7371 7.65326 13.5 8.25 13.5H15.9C16.4967 13.5 17.069 13.7371 17.491 14.159C17.9129 14.581 18.15 15.1533 18.15 15.75V16.5H20.25C20.4489 16.5 20.6397 16.421 20.7803 16.2803C20.921 16.1397 21 15.9489 21 15.75V9C21 8.60218 20.842 8.22064 20.5607 7.93934C20.2794 7.65804 19.8978 7.5 19.5 7.5H6ZM8.25 15C8.05109 15 7.86032 15.079 7.71967 15.2197C7.57902 15.3603 7.5 15.5511 7.5 15.75V18.75C7.5 18.9489 7.57902 19.1397 7.71967 19.2803C7.86032 19.421 8.05109 19.5 8.25 19.5H15.9C16.0989 19.5 16.2897 19.421 16.4303 19.2803C16.571 19.1397 16.65 18.9489 16.65 18.75V15.75C16.65 15.5511 16.571 15.3603 16.4303 15.2197C16.2897 15.079 16.0989 15 15.9 15H8.25Z" fill="#314E14"/>
</g>
</svg>
