<svg width="20" height="13" viewBox="0 0 20 13" fill="none" xmlns="http://www.w3.org/2000/svg">
<g id="Vector">
<path d="M7.28876 1.32046H12.6911V11.0276H7.28876V1.32046Z" fill="#FF5F00"/>
<path d="M7.63195 6.17414C7.63195 4.20187 8.55805 2.4525 9.98148 1.32055C8.93539 0.497344 7.61484 0 6.17422 0C2.76117 0 0 2.76117 0 6.17414C0 9.58703 2.76117 12.3483 6.17414 12.3483C7.61477 12.3483 8.93531 11.8509 9.98148 11.0277C8.55805 9.91289 7.63195 8.14641 7.63195 6.17414Z" fill="#EB001B"/>
<path d="M19.9803 6.17414C19.9803 9.58703 17.2191 12.3483 13.8061 12.3483C12.3655 12.3483 11.045 11.8509 9.9988 11.0277C11.4394 9.89578 12.3484 8.14641 12.3484 6.17414C12.3484 4.20187 11.4222 2.4525 9.9988 1.32055C11.0449 0.497344 12.3655 0 13.8061 0C17.2191 0 19.9803 2.77836 19.9803 6.17414Z" fill="#F79E1B"/>
</g>
</svg>
