<svg width="46" height="46" viewBox="0 0 46 46" fill="none" xmlns="http://www.w3.org/2000/svg">
<g id="ic:baseline-tiktok">
<path id="Vector" d="M31.8167 11.155C31.8167 11.155 32.7942 12.1133 31.8167 11.155C30.5065 9.65928 29.7845 7.73841 29.785 5.75H23.8625V29.5167C23.8168 30.8028 23.2738 32.021 22.3479 32.9148C21.4219 33.8086 20.1853 34.3081 18.8983 34.3083C16.1767 34.3083 13.915 32.085 13.915 29.325C13.915 26.0283 17.0967 23.5558 20.3742 24.5717V18.515C13.7617 17.6333 7.97334 22.77 7.97334 29.325C7.97334 35.7075 13.2633 40.25 18.8792 40.25C24.8975 40.25 29.785 35.3625 29.785 29.325V17.2692C32.1866 18.9939 35.0699 19.9192 38.0267 19.9142V13.9917C38.0267 13.9917 34.4233 14.1642 31.8167 11.155Z" fill="#314E14"/>
</g>
</svg>
