<svg width="46" height="46" viewBox="0 0 46 46" fill="none" xmlns="http://www.w3.org/2000/svg">
<g id="mdi:twitter">
<path id="Vector" d="M43.0483 11.5001C41.5725 12.1709 39.9817 12.6117 38.3333 12.8226C40.02 11.8067 41.3233 10.1967 41.9367 8.26091C40.3458 9.21925 38.5825 9.89008 36.7233 10.2734C35.2092 8.62508 33.0817 7.66675 30.6667 7.66675C26.1625 7.66675 22.4825 11.3467 22.4825 15.8892C22.4825 16.5409 22.5592 17.1734 22.6933 17.7676C15.87 17.4226 9.79417 14.1451 5.75 9.18091C5.04083 10.3884 4.63833 11.8067 4.63833 13.3017C4.63833 16.1576 6.07583 18.6876 8.29917 20.1251C6.93833 20.1251 5.67333 19.7417 4.56167 19.1667V19.2242C4.56167 23.2109 7.39833 26.5459 11.155 27.2934C9.94889 27.6235 8.68268 27.6694 7.45583 27.4276C7.97641 29.0615 8.99595 30.4912 10.3711 31.5157C11.7463 32.5402 13.4079 33.108 15.1225 33.1392C12.2161 35.4401 8.61349 36.6838 4.90667 36.6659C4.255 36.6659 3.60333 36.6276 2.95167 36.5509C6.59333 38.8892 10.925 40.2501 15.5633 40.2501C30.6667 40.2501 38.9658 27.7151 38.9658 16.8476C38.9658 16.4834 38.9658 16.1384 38.9467 15.7742C40.5567 14.6242 41.9367 13.1676 43.0483 11.5001Z" fill="#2D490F"/>
</g>
</svg>
