<svg width="46" height="46" viewBox="0 0 46 46" fill="none" xmlns="http://www.w3.org/2000/svg">
<g id="mdi:instagram">
<path id="Vector" d="M14.95 3.83325H31.05C37.1833 3.83325 42.1667 8.81659 42.1667 14.9499V31.0499C42.1667 33.9982 40.9955 36.8258 38.9107 38.9106C36.8259 40.9954 33.9983 42.1666 31.05 42.1666H14.95C8.81667 42.1666 3.83333 37.1833 3.83333 31.0499V14.9499C3.83333 12.0016 5.00455 9.17403 7.08933 7.08925C9.17411 5.00447 12.0017 3.83325 14.95 3.83325ZM14.5667 7.66659C12.7367 7.66659 10.9816 8.39355 9.68763 9.68755C8.39363 10.9815 7.66667 12.7366 7.66667 14.5666V31.4333C7.66667 35.2474 10.7525 38.3333 14.5667 38.3333H31.4333C33.2633 38.3333 35.0184 37.6063 36.3124 36.3123C37.6064 35.0183 38.3333 33.2632 38.3333 31.4333V14.5666C38.3333 10.7524 35.2475 7.66659 31.4333 7.66659H14.5667ZM33.0625 10.5416C33.6979 10.5416 34.3073 10.794 34.7566 11.2433C35.2059 11.6926 35.4583 12.302 35.4583 12.9374C35.4583 13.5728 35.2059 14.1822 34.7566 14.6315C34.3073 15.0808 33.6979 15.3333 33.0625 15.3333C32.4271 15.3333 31.8177 15.0808 31.3684 14.6315C30.9191 14.1822 30.6667 13.5728 30.6667 12.9374C30.6667 12.302 30.9191 11.6926 31.3684 11.2433C31.8177 10.794 32.4271 10.5416 33.0625 10.5416ZM23 13.4166C25.5417 13.4166 27.9792 14.4263 29.7764 16.2235C31.5737 18.0207 32.5833 20.4583 32.5833 22.9999C32.5833 25.5416 31.5737 27.9791 29.7764 29.7764C27.9792 31.5736 25.5417 32.5833 23 32.5833C20.4583 32.5833 18.0208 31.5736 16.2236 29.7764C14.4263 27.9791 13.4167 25.5416 13.4167 22.9999C13.4167 20.4583 14.4263 18.0207 16.2236 16.2235C18.0208 14.4263 20.4583 13.4166 23 13.4166ZM23 17.2499C21.475 17.2499 20.0125 17.8557 18.9341 18.9341C17.8558 20.0124 17.25 21.4749 17.25 22.9999C17.25 24.5249 17.8558 25.9874 18.9341 27.0658C20.0125 28.1441 21.475 28.7499 23 28.7499C24.525 28.7499 25.9875 28.1441 27.0659 27.0658C28.1442 25.9874 28.75 24.5249 28.75 22.9999C28.75 21.4749 28.1442 20.0124 27.0659 18.9341C25.9875 17.8557 24.525 17.2499 23 17.2499Z" fill="#2D490F"/>
</g>
</svg>
