<svg width="36" height="37" viewBox="0 0 36 37" fill="none" xmlns="http://www.w3.org/2000/svg">
<g id="&#240;&#159;&#166;&#134; icon &#34;call&#34;">
<path id="Vector" d="M27.1761 36.0671C25.2805 36.0671 23.2843 35.6142 21.2209 34.7418C19.2078 33.8863 17.178 32.712 15.1985 31.2861C13.2358 29.8434 11.3402 28.233 9.5452 26.4716C7.76701 24.6766 6.15657 22.781 4.73066 20.835C3.28798 18.822 2.13048 16.8089 1.30848 14.863C0.43616 12.7829 0 10.7698 0 8.87418C0 7.5657 0.234855 6.32432 0.687791 5.16682C1.1575 3.97577 1.9124 2.86859 2.93569 1.9124C4.2274 0.637465 5.70364 0 7.28052 0C7.93476 0 8.60578 0.150979 9.17614 0.419385C9.83038 0.721342 10.384 1.17428 10.7866 1.77819L14.6785 7.26375C15.0308 7.75023 15.2992 8.21994 15.4837 8.68966C15.7018 9.19292 15.8192 9.69618 15.8192 10.1827C15.8192 10.8201 15.6347 11.4408 15.2824 12.028C15.0308 12.4809 14.6449 12.9674 14.1584 13.4539L13.0177 14.6449C13.0345 14.6952 13.0513 14.7288 13.068 14.7624C13.2693 15.1146 13.6719 15.7185 14.4436 16.6244C15.2656 17.5638 16.0373 18.4194 16.8089 19.2078C17.7987 20.1808 18.6207 20.9525 19.3924 21.5899C20.3486 22.3952 20.9692 22.7978 21.3383 22.9823L21.3048 23.0662L22.5294 21.8583C23.0494 21.3383 23.5527 20.9525 24.0391 20.7008C24.9618 20.1305 26.1361 20.0298 27.3103 20.5163C27.7465 20.7008 28.2162 20.9525 28.7195 21.3048L34.2889 25.2637C34.9096 25.6831 35.3625 26.2199 35.6309 26.8574C35.8826 27.4949 36 28.082 36 28.6692C36 29.4744 35.8155 30.2796 35.4632 31.0345C35.1109 31.7894 34.6747 32.4436 34.1212 33.0475C33.165 34.1044 32.1249 34.8593 30.9171 35.3458C29.7596 35.8155 28.5014 36.0671 27.1761 36.0671ZM7.28052 2.51631C6.35788 2.51631 5.50233 2.91892 4.68034 3.72414C3.90867 4.44548 3.37185 5.23392 3.03635 6.08947C2.68406 6.96179 2.51631 7.88444 2.51631 8.87418C2.51631 10.4343 2.88537 12.1286 3.62349 13.8733C4.37838 15.6514 5.43523 17.4967 6.77726 19.342C8.11929 21.1873 9.64585 22.9823 11.3234 24.6766C13.0009 26.3374 14.8127 27.8807 16.6747 29.2395C18.4865 30.5648 20.3486 31.6384 22.1938 32.4101C25.0624 33.6347 27.7465 33.9199 29.9609 32.9972C30.8164 32.6449 31.5713 32.1081 32.2591 31.3364C32.6449 30.9171 32.9469 30.4641 33.1985 29.9273C33.3998 29.5079 33.5005 29.0718 33.5005 28.6356C33.5005 28.3672 33.4501 28.0988 33.3159 27.7968C33.2656 27.6962 33.165 27.5117 32.8462 27.2936L27.2768 23.3346C26.9413 23.0997 26.6393 22.932 26.3541 22.8145C25.9851 22.6636 25.8341 22.5126 25.2637 22.8649C24.9282 23.0326 24.6263 23.2843 24.2908 23.6198L23.0158 24.8779C22.3616 25.5154 21.3551 25.6664 20.5834 25.3812L20.1305 25.1799C19.4427 24.8108 18.6375 24.2404 17.7484 23.4856C16.9432 22.7978 16.0708 21.9925 15.014 20.9525C14.192 20.1137 13.37 19.2246 12.5144 18.2349C11.726 17.3122 11.1556 16.5238 10.8034 15.8695L10.6021 15.3663C10.5014 14.9804 10.4678 14.7623 10.4678 14.5275C10.4678 13.9236 10.6859 13.3868 11.1053 12.9674L12.3635 11.6589C12.699 11.3234 12.9506 11.0047 13.1184 10.7195C13.2526 10.5014 13.3029 10.3169 13.3029 10.1491C13.3029 10.0149 13.2526 9.81361 13.1687 9.6123C13.0513 9.3439 12.8667 9.04194 12.6319 8.72321L8.73998 3.22088C8.57223 2.98602 8.37092 2.81827 8.11929 2.70084C7.85089 2.58341 7.5657 2.51631 7.28052 2.51631ZM21.3048 23.0829L21.0363 24.2237L21.4893 23.0494C21.4054 23.0326 21.3383 23.0494 21.3048 23.0829Z" fill="#2D490F"/>
</g>
</svg>
