<svg width="50" height="50" viewBox="0 0 50 50" fill="none" xmlns="http://www.w3.org/2000/svg">
<g id="mdi:twitter">
<path id="Vector" d="M46.7917 12.4999C45.1875 13.2291 43.4584 13.7083 41.6667 13.9374C43.5 12.8333 44.9167 11.0833 45.5834 8.97909C43.8542 10.0208 41.9375 10.7499 39.9167 11.1666C38.2709 9.37492 35.9584 8.33325 33.3334 8.33325C28.4375 8.33325 24.4375 12.3333 24.4375 17.2708C24.4375 17.9791 24.5209 18.6666 24.6667 19.3124C17.25 18.9374 10.6459 15.3749 6.25004 9.97909C5.47921 11.2916 5.04171 12.8333 5.04171 14.4583C5.04171 17.5624 6.60421 20.3124 9.02087 21.8749C7.54171 21.8749 6.16671 21.4583 4.95837 20.8333V20.8958C4.95837 25.2291 8.04171 28.8541 12.125 29.6666C10.8141 30.0254 9.43774 30.0753 8.10421 29.8124C8.67005 31.5884 9.77824 33.1424 11.273 34.256C12.7677 35.3696 14.5739 35.9868 16.4375 36.0208C13.2784 38.5217 9.36253 39.8735 5.33337 39.8541C4.62504 39.8541 3.91671 39.8124 3.20837 39.7291C7.16671 42.2708 11.875 43.7499 16.9167 43.7499C33.3334 43.7499 42.3542 30.1249 42.3542 18.3124C42.3542 17.9166 42.3542 17.5416 42.3334 17.1458C44.0834 15.8958 45.5834 14.3124 46.7917 12.4999Z" fill="#2D490F"/>
</g>
</svg>
