<svg width="712" height="621" viewBox="0 0 712 621" fill="none" xmlns="http://www.w3.org/2000/svg">
    <path d="M0.652453 245.02C0.130218 280.887 54.9168 303.723 69.4808 302.683C88.2271 301.389 108.523 297.749 128.138 294.254C154.206 289.573 181.014 284.769 203.05 285.824C139.507 351.823 114.87 409.916 127.781 463.282C136.193 498.073 162.423 530.796 199.702 553.145C249.761 583.092 298.206 583.065 330.035 577.785C399.708 566.21 444.444 521.25 460.441 502.443C496.964 459.493 510.494 408.01 500.641 349.352C492.801 302.84 468.095 269.923 447.175 249.57C467.394 235.809 488.09 222.235 508.842 209.231C527.754 197.362 547.176 185.624 566.68 174.296L563.566 597.146C563.505 604.055 566.558 610.224 572.165 614.576C577.743 618.916 585.18 620.825 593.119 620.047L674.878 611.716C691.096 610.087 704.483 597.227 704.654 583.086L711.456 56.1045C711.692 34.5059 698.774 15.3216 677.717 6.10314C676.856 5.69853 676.022 5.37264 675.128 5.02345C654.293 -3.11258 629.046 -1.09682 607.606 10.4369C497.606 69.4825 404.372 126.186 330.437 179.066C275.665 159.943 146.11 124.933 54.5312 181.528C41.3113 189.716 1.05206 214.596 0.605692 245.036L0.652453 245.02ZM336.024 320.076C337.797 319.052 339.899 318.877 341.628 319.552C342.015 319.704 342.369 319.91 342.722 320.117C363.176 334.419 375.105 350.335 377.242 366.133C381.43 396.667 370.381 425.54 347.701 443.316C325.276 460.918 307.092 462.74 295.741 461.19C292.063 460.681 288.67 459.768 285.57 458.557C268.64 451.946 259.916 436.287 257.249 426.837C248.404 395.102 280.037 352.233 336.037 320.115L336.024 320.076Z" fill="#C7E76A"/>
</svg>