<svg width="68" height="68" viewBox="0 0 68 68" fill="none" xmlns="http://www.w3.org/2000/svg">
<g id="interface-favorite-star--reward-rating-rate-social-star-media-favorite-like-stars" clip-path="url(#clip0_23_479)">
<path id="Vector" d="M36.38 5.29428L44.1029 20.8857C44.2785 21.2814 44.5548 21.6242 44.9042 21.8799C45.2536 22.1356 45.6639 22.2952 46.0943 22.3428L63.1429 24.8686C63.6365 24.932 64.1019 25.1346 64.4847 25.4527C64.8675 25.7707 65.1519 26.1911 65.3047 26.6648C65.4575 27.1385 65.4723 27.6458 65.3476 28.1276C65.2228 28.6094 64.9635 29.0458 64.6 29.3857L52.3114 41.5771C51.9978 41.8702 51.7624 42.2369 51.6267 42.6441C51.491 43.0513 51.4592 43.486 51.5343 43.9086L54.4971 61.0543C54.5829 61.5469 54.5287 62.0538 54.3406 62.5172C54.1526 62.9805 53.8382 63.3818 53.4334 63.6754C53.0285 63.9689 52.5493 64.1429 52.0505 64.1775C51.5516 64.2122 51.053 64.1061 50.6114 63.8714L35.2629 55.76C34.8698 55.567 34.4378 55.4667 34 55.4667C33.5622 55.4667 33.1302 55.567 32.7371 55.76L17.3886 63.8714C16.947 64.1061 16.4484 64.2122 15.9495 64.1775C15.4506 64.1429 14.9715 63.9689 14.5666 63.6754C14.1618 63.3818 13.8474 62.9805 13.6594 62.5172C13.4713 62.0538 13.4171 61.5469 13.5029 61.0543L16.4657 43.7143C16.5408 43.2917 16.509 42.857 16.3733 42.4498C16.2376 42.0427 16.0022 41.6759 15.6886 41.3829L3.25428 29.3857C2.88642 29.0365 2.62771 28.588 2.50951 28.0947C2.39131 27.6015 2.41868 27.0845 2.58831 26.6064C2.75793 26.1284 3.06254 25.7098 3.46523 25.4013C3.86792 25.0929 4.35141 24.9078 4.85714 24.8686L21.9057 22.3428C22.336 22.2952 22.7464 22.1356 23.0958 21.8799C23.4452 21.6242 23.7215 21.2814 23.8971 20.8857L31.62 5.29428C31.8303 4.84018 32.1661 4.45572 32.5879 4.18628C33.0096 3.91685 33.4996 3.77368 34 3.77368C34.5004 3.77368 34.9904 3.91685 35.4121 4.18628C35.8339 4.45572 36.1697 4.84018 36.38 5.29428V5.29428Z" stroke="#42681A" stroke-width="5" stroke-linecap="round" stroke-linejoin="round"/>
</g>
<defs>
<clipPath id="clip0_23_479">
<rect width="68" height="68" fill="white"/>
</clipPath>
</defs>
</svg>
