<svg width="61" height="61" viewBox="0 0 61 61" fill="none" xmlns="http://www.w3.org/2000/svg">
<g id="nature-ecology-potted-tree-2--tree-plant-pot" clip-path="url(#clip0_23_468)">
<g id="Group">
<path id="Vector" d="M40.3036 58.8214H22.875L20.6964 41.3928H42.4822L40.3036 58.8214Z" stroke="#42681A" stroke-width="5" stroke-linecap="round" stroke-linejoin="round"/>
<path id="Vector_2" d="M52.8521 26.4478C51.9615 27.2231 50.9225 27.8092 49.7984 28.1707C48.6742 28.5322 47.4883 28.6614 46.3127 28.5506C45.1371 28.4397 43.9963 28.0911 42.9595 27.5259C41.9227 26.9606 41.0117 26.1906 40.2816 25.2625C39.5515 24.3344 39.0177 23.2676 38.7125 22.1269C38.4073 20.9861 38.3372 19.7953 38.5063 18.6266C38.6754 17.458 39.0803 16.3359 39.6964 15.3285C40.3124 14.3211 41.1268 13.4494 42.09 12.7663C45.8371 9.80349 57.7321 11.5463 57.7321 11.5463C57.7321 11.5463 56.6429 23.4849 52.8521 26.4478Z" stroke="#42681A" stroke-width="5" stroke-linecap="round" stroke-linejoin="round"/>
<path id="Vector_3" d="M40.3036 24.5744C37.7844 26.6385 35.7125 29.1945 34.2142 32.0861C32.7159 34.9778 31.8228 38.1446 31.5893 41.393C31.5893 28.3215 25.0536 19.6072 14.1607 13.0715" stroke="#42681A" stroke-width="5" stroke-linecap="round" stroke-linejoin="round"/>
<path id="Vector_4" d="M7.27643 21.7857C9.40973 23.618 12.1564 24.5768 14.9665 24.4703C17.7766 24.3638 20.4428 23.1998 22.4313 21.2113C24.4198 19.2228 25.5838 16.5566 25.6903 13.7465C25.7968 10.9364 24.838 8.18972 23.0057 6.05642C18.6486 1.74285 3.26786 2.17857 3.26786 2.17857C3.26786 2.17857 2.91929 17.4286 7.27643 21.7857Z" stroke="#42681A" stroke-width="5" stroke-linecap="round" stroke-linejoin="round"/>
</g>
</g>
<defs>
<clipPath id="clip0_23_468">
<rect width="61" height="61" fill="white"/>
</clipPath>
</defs>
</svg>
