<svg width="61" height="60" viewBox="0 0 61 60" fill="none" xmlns="http://www.w3.org/2000/svg">
<g id="nature-ecology-leaf--environment-leaf-ecology-plant-plants-eco" clip-path="url(#clip0_23_464)">
<g id="Group">
<path id="Vector" d="M50.1507 23.0572C58.865 35.1429 52.1986 48.9857 48.9743 54.3857C48.5015 55.141 47.8665 55.7856 47.1139 56.2742C46.3612 56.7628 45.5091 57.0836 44.6171 57.2143C38.2993 58.2857 22.57 59.4857 14.1171 47.4C5.795 36 6.14357 15.9429 6.88429 6.38574C6.91349 5.6737 7.1142 4.97866 7.4699 4.35784C7.8256 3.73701 8.3261 3.20816 8.93023 2.8148C9.53435 2.42145 10.2248 2.17484 10.9448 2.09527C11.6647 2.01571 12.3936 2.10547 13.0714 2.35716C22.4393 5.01431 41.9593 11.6572 50.1507 23.0572Z" stroke="#42681A" stroke-width="5" stroke-linecap="round" stroke-linejoin="round"/>
<path id="Vector_2" d="M20.7836 19.0715C30.7637 30.6398 39.523 43.1756 46.9264 56.4858" stroke="#42681A" stroke-width="5" stroke-linecap="round" stroke-linejoin="round"/>
</g>
</g>
<defs>
<clipPath id="clip0_23_464">
<rect width="61" height="60" fill="white"/>
</clipPath>
</defs>
</svg>
