<svg width="94" height="94" viewBox="0 0 94 94" fill="none" xmlns="http://www.w3.org/2000/svg">
<g id="&#240;&#159;&#166;&#134; icon &#34;emoji sad&#34;">
<g id="Group">
<path id="Vector" d="M4 51.454V60.082C4 81.652 12.628 90.28 34.198 90.28H60.082C81.652 90.28 90.28 81.652 90.28 60.082V34.198C90.28 12.628 81.652 4 60.082 4H34.198C12.628 4 4 12.628 4 34.198" stroke="#314E14" stroke-width="6.471" stroke-linecap="round" stroke-linejoin="round"/>
<g id="Group_2">
<path id="Vector_2" d="M25.5693 33.1195C29.8833 28.8055 36.9152 28.8055 41.2723 33.1195" stroke="#314E14" stroke-width="6.471" stroke-miterlimit="10" stroke-linecap="round" stroke-linejoin="round"/>
<path id="Vector_3" d="M53.0039 33.1195C57.3179 28.8055 64.3497 28.8055 68.7069 33.1195" stroke="#314E14" stroke-width="6.471" stroke-miterlimit="10" stroke-linecap="round" stroke-linejoin="round"/>
<path id="Vector_4" d="M31.6092 71.7299H62.67C64.827 71.7299 66.5526 70.0043 66.5526 67.8473C66.5526 57.1055 57.8814 48.4343 47.1396 48.4343C36.3977 48.4343 27.7266 57.1055 27.7266 67.8473C27.7266 70.0043 29.4522 71.7299 31.6092 71.7299Z" stroke="#314E14" stroke-width="6.471" stroke-miterlimit="10" stroke-linecap="round" stroke-linejoin="round"/>
</g>
</g>
</g>
</svg>
