<svg width="16" height="16" viewBox="0 0 16 16" fill="none" xmlns="http://www.w3.org/2000/svg">
<g id="&#240;&#159;&#166;&#134; icon &#34;save 2&#34;">
<g id="Group">
<path id="Vector" d="M8.70276 3.74432H3.19977C1.99025 3.74432 1 4.73457 1 5.94409V13.9793C1 15.0049 1.73562 15.4435 2.63392 14.9413L5.4137 13.3922C5.71077 13.2296 6.19176 13.2296 6.48176 13.3922L9.26154 14.9413C10.1598 15.4435 10.8955 15.0049 10.8955 13.9793V5.94409C10.9025 4.73457 9.91228 3.74432 8.70276 3.74432Z" stroke="#2D490F" stroke-width="1.5" stroke-linecap="round" stroke-linejoin="round"/>
<path id="Vector_2" d="M10.9025 5.94409V13.9793C10.9025 15.0049 10.1669 15.4364 9.26862 14.9413L6.48884 13.3922C6.19177 13.2296 5.71077 13.2296 5.4137 13.3922L2.63392 14.9413C1.73562 15.4364 1 15.0049 1 13.9793V5.94409C1 4.73457 1.99025 3.74432 3.19977 3.74432H8.70276C9.91228 3.74432 10.9025 4.73457 10.9025 5.94409Z" stroke="#2D490F" stroke-width="1.5" stroke-linecap="round" stroke-linejoin="round"/>
<path id="Vector_3" d="M15.1467 3.19977V11.235C15.1467 12.2606 14.4111 12.6921 13.5128 12.1969L10.9027 10.7399V5.94419C10.9027 4.73466 9.91248 3.74442 8.70296 3.74442H5.24414V3.19977C5.24414 1.99025 6.23439 1 7.44392 1H12.9469C14.1564 1 15.1467 1.99025 15.1467 3.19977Z" stroke="#2D490F" stroke-width="1.5" stroke-linecap="round" stroke-linejoin="round"/>
</g>
</g>
</svg>
