<svg width="16" height="16" viewBox="0 0 16 16" fill="none" xmlns="http://www.w3.org/2000/svg">
<g id="dashboaard">
<path id="Vector" d="M13.4551 5.45383L13.4538 5.45506C13.4247 5.48427 13.396 5.5 13.3333 5.5H9.33333C9.27064 5.5 9.24194 5.48427 9.21284 5.45506L9.21161 5.45383C9.1824 5.42473 9.16667 5.39602 9.16667 5.33333V2.66667C9.16667 2.60396 9.18244 2.57467 9.21222 2.54489C9.2412 2.51591 9.2701 2.5 9.33333 2.5H13.3333C13.3966 2.5 13.4255 2.51591 13.4544 2.54489C13.4842 2.57467 13.5 2.60396 13.5 2.66667V5.33333C13.5 5.39602 13.4843 5.42473 13.4551 5.45383ZM6.78845 8.12111L7.142 8.47467L6.78845 8.12111C6.75866 8.1509 6.72937 8.16667 6.66667 8.16667H2.66667C2.60398 8.16667 2.57527 8.15094 2.54617 8.12173L2.54494 8.1205C2.51573 8.09139 2.5 8.06269 2.5 8V2.66667C2.5 2.60396 2.51577 2.57467 2.54555 2.54489C2.57453 2.51591 2.60343 2.5 2.66667 2.5H6.66667C6.72947 2.5 6.75898 2.51572 6.78843 2.54488C6.81761 2.57433 6.83333 2.60384 6.83333 2.66667V8C6.83333 8.06324 6.81743 8.09213 6.78845 8.12111ZM2.54555 10.5449L2.192 10.1913L2.54555 10.5449C2.57453 10.5159 2.60343 10.5 2.66667 10.5H6.66667C6.72947 10.5 6.75898 10.5157 6.78842 10.5449C6.8176 10.5743 6.83333 10.6038 6.83333 10.6667V13.3333C6.83333 13.3966 6.81743 13.4255 6.78845 13.4544C6.75866 13.4842 6.72937 13.5 6.66667 13.5H2.66667C2.60398 13.5 2.57527 13.4843 2.54617 13.4551L2.54494 13.4538C2.51573 13.4247 2.5 13.396 2.5 13.3333V10.6667C2.5 10.604 2.51577 10.5747 2.54555 10.5449ZM9.21284 13.4551L9.21161 13.4538C9.1824 13.4247 9.16667 13.396 9.16667 13.3333V8C9.16667 7.93729 9.18244 7.908 9.21222 7.87822C9.2412 7.84924 9.27009 7.83333 9.33333 7.83333H13.3333C13.3966 7.83333 13.4255 7.84924 13.4544 7.87822C13.4842 7.908 13.5 7.93729 13.5 8V13.3333C13.5 13.396 13.4843 13.4247 13.4551 13.4538L13.4538 13.4551C13.4247 13.4843 13.396 13.5 13.3333 13.5H9.33333C9.27064 13.5 9.24194 13.4843 9.21284 13.4551ZM2.83333 7.33333V7.83333H3.33333H6H6.5V7.33333V3.33333V2.83333H6H3.33333H2.83333V3.33333V7.33333ZM9.5 12.6667V13.1667H10H12.6667H13.1667V12.6667V8.66667V8.16667H12.6667H10H9.5V8.66667V12.6667ZM9.5 4.66667V5.16667H10H12.6667H13.1667V4.66667V3.33333V2.83333H12.6667H10H9.5V3.33333V4.66667ZM2.83333 12.6667V13.1667H3.33333H6H6.5V12.6667V11.3333V10.8333H6H3.33333H2.83333V11.3333V12.6667Z" fill="black" stroke="#314E14"/>
</g>
</svg>
