<svg width="29" height="30" viewBox="0 0 29 30" fill="none" xmlns="http://www.w3.org/2000/svg">
<g id="Vector">
<path fill-rule="evenodd" clip-rule="evenodd" d="M0 0H3.97165C5.78388 0 7.32874 1.33342 7.61942 3.14851L8.31628 7.5H25.3023C27.7364 7.5 29.5057 9.84629 28.8694 12.2303L26.8676 19.7303C26.4313 21.3649 24.9695 22.5 23.3005 22.5H10.1179C8.30566 22.5 6.7608 21.1666 6.47013 19.3515L3.97165 3.75H0V0ZM8.91682 11.25L10.1179 18.75H23.3005L25.3023 11.25H8.91682Z" fill="black"/>
<path fill-rule="evenodd" clip-rule="evenodd" d="M10.163 28.125C10.6732 28.125 11.0869 27.7053 11.0869 27.1875C11.0869 26.6697 10.6732 26.25 10.163 26.25C9.65269 26.25 9.23905 26.6697 9.23905 27.1875C9.23905 27.7053 9.65269 28.125 10.163 28.125ZM10.163 30C11.6937 30 12.9347 28.7408 12.9347 27.1875C12.9347 25.6342 11.6937 24.375 10.163 24.375C8.63218 24.375 7.39124 25.6342 7.39124 27.1875C7.39124 28.7408 8.63218 30 10.163 30Z" fill="black"/>
<path fill-rule="evenodd" clip-rule="evenodd" d="M23.0976 28.125C23.6079 28.125 24.0215 27.7053 24.0215 27.1875C24.0215 26.6697 23.6079 26.25 23.0976 26.25C22.5874 26.25 22.1737 26.6697 22.1737 27.1875C22.1737 27.7053 22.5874 28.125 23.0976 28.125ZM23.0976 30C24.6284 30 25.8693 28.7408 25.8693 27.1875C25.8693 25.6342 24.6284 24.375 23.0976 24.375C21.5668 24.375 20.3259 25.6342 20.3259 27.1875C20.3259 28.7408 21.5668 30 23.0976 30Z" fill="black"/>
</g>
</svg>
