<svg width="169" height="92" viewBox="0 0 169 92" fill="none" xmlns="http://www.w3.org/2000/svg">
<g id="Group 9">
<path id="Vector" d="M95.1126 33.2179C92.8822 29.1158 85.7339 28.9519 84.2866 29.7169C82.4208 30.6965 80.5435 32.0118 78.7277 33.2803C76.3168 34.9703 73.8367 36.7072 71.4796 37.5658C73.879 27.2385 72.7388 19.5378 67.9976 14.0424C64.9072 10.4594 60.0969 7.90296 54.799 7.01698C47.6891 5.83437 42.6561 7.98883 39.6847 10.0028C33.1814 14.4132 31.3963 21.5128 30.9317 24.3619C29.8722 30.8683 31.7456 37.3238 36.506 43.5569C40.2836 48.4981 44.948 51.1444 48.4185 52.5299C47.1939 54.9927 45.9078 57.4555 44.5795 59.8559C43.3702 62.0455 42.0995 64.2429 40.7942 66.3973L14.182 18.1718C13.7482 17.3834 13.038 16.8174 12.1781 16.5715C11.322 16.3257 10.4275 16.4388 9.65199 16.8799L1.686 21.4581C0.104319 22.3636 -0.467696 24.4205 0.415281 26.0363L33.2774 86.2675C34.6287 88.7342 37.1932 90.3423 39.9688 90.4555C40.084 90.4633 40.1915 90.4633 40.3066 90.4633C42.9901 90.4633 45.4855 89.1128 46.9789 86.8491C54.6493 75.2494 60.7265 64.6605 65.0415 55.3635C71.9518 55.1059 87.6457 53.334 93.5578 42.831C94.4101 41.3127 97.0091 36.6954 95.1165 33.214L95.1126 33.2179ZM55.4785 39.5759C55.3595 39.771 55.1522 39.8842 54.9295 39.8842C54.8796 39.8842 54.8297 39.8764 54.7798 39.8686C51.7431 39.1504 49.4896 37.8703 48.2611 36.1685C45.8809 32.8822 45.1899 29.108 46.4145 26.0793C47.6238 23.0818 49.3975 22.067 50.6759 21.7391C51.0905 21.6337 51.5013 21.5869 51.9005 21.5869C54.0811 21.5869 55.9853 22.9803 56.8644 23.9365C59.8051 27.1526 59.2484 33.4325 55.4747 39.572L55.4785 39.5759Z" fill="#5D9127"/>
<path id="Vector_2" d="M102.775 18.2342C102.054 19.6588 100.449 21.2864 99.0438 22.0241C97.1205 23.0349 95.1011 23.5228 93.1471 23.5228C90.2102 23.5228 87.4154 22.4105 85.2924 20.256C81.749 16.6613 81.0541 11.1737 83.5226 6.27933C84.348 4.64397 85.684 3.28572 87.2887 2.44658C89.2044 1.44741 91.216 0.955627 93.1663 0.955627C96.107 0.955627 98.9095 2.07189 101.04 4.24196C104.58 7.84834 105.259 13.336 102.775 18.2303V18.2342Z" fill="#5D9127"/>
<path id="Vector_3" d="M99.4891 29.2798H86.828C85.4477 29.2798 84.3288 30.4174 84.3288 31.8206V87.9342C84.3288 89.3375 85.4477 90.475 86.828 90.475H99.4891C100.869 90.475 101.988 89.3375 101.988 87.9342V31.8206C101.988 30.4174 100.869 29.2798 99.4891 29.2798Z" fill="#5D9127"/>
<path id="Vector_4" d="M167.897 52.0499C167.325 43.1588 163.62 35.2435 157.466 29.7559C151.473 24.4166 143.703 21.7743 135.576 22.3168C127.238 22.8749 119.782 26.7038 114.577 33.0969C107.367 41.9528 107.467 52.9827 107.494 56.3237C107.532 61.4717 107.632 74.2619 117.521 83.5472C126.589 92.0596 137.776 91.884 141.857 91.8176C149.185 91.7005 159.247 87.1692 164.783 81.8845C165.578 81.1273 165.674 79.8861 165.014 79.0041L157.731 69.3363C157.363 68.8445 156.802 68.5401 156.195 68.4972C155.385 68.4386 154.748 68.9733 154.56 69.1255C152.928 70.4096 145.258 74.1917 139.476 74.0472C138.451 74.0238 133.948 73.7857 130.366 70.2496C127.245 67.1662 126.608 63.3335 126.443 61.9752C139.68 61.0932 152.913 60.2111 166.15 59.329C167.279 59.2548 168.15 58.2908 168.131 57.1394C168.093 55.0669 167.966 53.1037 167.897 52.0499ZM149.562 46.4803L125.234 48.1039C126.028 44.4312 129.069 39.4002 136.647 38.8968C144.245 38.3894 148.31 42.7841 149.565 46.4803H149.562Z" fill="#5D9127"/>
</g>
</svg>
