<svg width="27" height="27" viewBox="0 0 27 27" fill="none" xmlns="http://www.w3.org/2000/svg">
<g id="Magnifying Glass" clip-path="url(#clip0_95_915)">
<g id="magnifying-glass--glass-search-magnifying">
<path id="Union" fill-rule="evenodd" clip-rule="evenodd" d="M3.85714 11.5714C3.85714 7.31094 7.31094 3.85714 11.5714 3.85714C15.8319 3.85714 19.2857 7.31094 19.2857 11.5714C19.2857 15.8319 15.8319 19.2857 11.5714 19.2857C7.31094 19.2857 3.85714 15.8319 3.85714 11.5714ZM11.5714 0C5.1807 0 0 5.1807 0 11.5714C0 17.9622 5.1807 23.1429 11.5714 23.1429C14.0704 23.1429 16.3844 22.3506 18.276 21.0037L23.7077 26.4355C24.4608 27.1886 25.682 27.1886 26.4351 26.4355C27.1882 25.6824 27.1882 24.4612 26.4351 23.7081L21.0035 18.2764C22.3506 16.3848 23.1429 14.0706 23.1429 11.5714C23.1429 5.1807 17.9622 0 11.5714 0Z" fill="black"/>
</g>
</g>
<defs>
<clipPath id="clip0_95_915">
<rect width="27" height="27" fill="white"/>
</clipPath>
</defs>
</svg>
